<svg width="58" height="22" viewBox="0 0 58 22" fill="none" xmlns="http://www.w3.org/2000/svg">
<path d="M11.9279 16.8934V5.1999H15.8843V5.93686C16.3243 5.6016 16.8253 5.34042 17.3874 5.15332C17.9502 4.96622 18.5435 4.87305 19.1681 4.87305C20.0466 4.87305 20.8557 5.05022 21.5939 5.40457C22.3321 5.75969 22.93 6.23317 23.3876 6.82503C23.8535 6.23317 24.4537 5.75969 25.1873 5.40457C25.921 5.05022 26.7232 4.87305 27.5933 4.87305C28.5428 4.87305 29.4045 5.07772 30.1778 5.48705C30.9511 5.89639 31.5688 6.44395 32.0302 7.1305C32.4923 7.81629 32.7226 8.57997 32.7226 9.42232V16.8942H28.7662V10.4044C28.7662 10.0378 28.6648 9.70717 28.4627 9.4101C28.2599 9.11379 27.9922 8.87628 27.6582 8.69682C27.3241 8.51735 26.9505 8.428 26.5371 8.428C26.1238 8.428 25.7478 8.51735 25.4092 8.69682C25.0706 8.87628 24.8007 9.11379 24.5986 9.4101C24.3965 9.70641 24.2951 10.0378 24.2951 10.4044V16.8942H20.3387V10.4044C20.3387 10.0378 20.2395 9.70717 20.042 9.4101C19.8445 9.11379 19.5761 8.87628 19.2375 8.69682C18.8989 8.51735 18.5229 8.428 18.1096 8.428C17.6962 8.428 17.3332 8.51735 16.9954 8.69682C16.6568 8.87628 16.3861 9.11379 16.184 9.4101C15.9819 9.70641 15.8805 10.0378 15.8805 10.4044V16.8942H11.9241L11.9279 16.8934Z" fill="white"/>
<path d="M46.284 13.4737V0H42.4832V5.20986H39.5677C39.4488 5.20986 39.3321 5.22055 39.2169 5.23506C38.632 5.28623 38.0761 5.42369 37.5529 5.6528C36.8719 5.94605 36.2725 6.35844 35.754 6.87927C35.2354 7.40011 34.8358 8.00571 34.5483 8.69608C34.26 9.38645 34.1182 10.1272 34.1182 10.9176C34.1182 11.7508 34.2707 12.526 34.5757 13.2469C34.8808 13.9678 35.304 14.6085 35.8493 15.1599C36.3915 15.7113 37.0214 16.1435 37.7398 16.4521C38.3361 16.714 38.976 16.8645 39.6509 16.9034L39.6524 16.8897C39.6982 16.8935 39.7416 16.9034 39.7881 16.9034H46.297V13.4737H46.2848H46.284ZM42.4824 13.4737V13.9953H40.6079C38.9874 13.9953 37.6734 12.6795 37.6734 11.0566C37.6734 9.4338 38.9874 8.11797 40.6079 8.11797H42.4824V13.4737Z" fill="white"/>
<path d="M54.4623 13.1865V9.39481H58V5.88644H54.4623V2.29102H50.5059V5.88644H48.639L46.4275 9.39481H50.5059V13.4064C50.5059 15.3325 52.0647 16.8934 53.988 16.8934H57.8269V13.1865H54.4623Z" fill="white"/>
<path d="M8.14845 5.97494C7.47431 5.97494 6.83219 5.83595 6.24956 5.58622V16.387C6.24956 16.7536 6.14661 17.0888 5.93994 17.3928C5.73328 17.6967 5.45874 17.9404 5.11633 18.1236C4.77315 18.3069 4.3949 18.3986 3.98233 18.3986C3.63992 18.3986 3.34937 18.3459 3.1122 18.2405C2.87503 18.1351 2.68132 18.032 2.53185 17.9304L0 20.6201C0.553652 21.0409 1.17518 21.3609 1.86534 21.5785C2.55549 21.7962 3.2609 21.9062 3.98157 21.9062C5.12395 21.9062 6.16644 21.6564 7.10673 21.1578C8.04702 20.6591 8.79895 19.9924 9.36099 19.1577C9.9238 18.3237 10.2052 17.3997 10.2052 16.3863V5.51367C9.58139 5.80845 8.8836 5.97417 8.14769 5.97417L8.14845 5.97494Z" fill="white"/>
<path d="M8.13274 4.97782C9.45583 4.97782 10.5284 3.90372 10.5284 2.57875C10.5284 1.25379 9.45583 0.179688 8.13274 0.179688C6.80964 0.179688 5.73706 1.25379 5.73706 2.57875C5.73706 3.90372 6.80964 4.97782 8.13274 4.97782Z" fill="#C60586"/>
</svg>
