<svg width="18" height="18" viewBox="0 0 18 18" fill="none" xmlns="http://www.w3.org/2000/svg">
<path d="M16.8698 16.9115C16.4792 17.302 15.8461 17.302 15.4556 16.9115L11.3445 12.8004C10.9841 12.4401 10.414 12.4165 9.97236 12.6706C9.64488 12.859 9.2933 13.0206 8.91764 13.1555C8.24166 13.3981 7.52236 13.5194 6.75972 13.5194C4.87047 13.5194 3.27153 12.8651 1.96292 11.5565C0.654307 10.2479 0 8.64898 0 6.75972C0 4.87047 0.654307 3.27153 1.96292 1.96292C3.27153 0.654307 4.87047 0 6.75972 0C8.64898 0 10.2479 0.654307 11.5565 1.96292C12.8651 3.27153 13.5194 4.87047 13.5194 6.75972C13.5194 7.52236 13.3981 8.24166 13.1555 8.91764C13.0206 9.2933 12.859 9.64488 12.6706 9.97236C12.4165 10.414 12.4401 10.9841 12.8004 11.3445L16.9115 15.4556C17.302 15.8461 17.302 16.4792 16.9115 16.8698L16.8698 16.9115ZM6.75972 11.4395C8.05967 11.4395 9.16463 10.9846 10.0746 10.0746C10.9846 9.16463 11.4395 8.05967 11.4395 6.75972C11.4395 5.45978 10.9846 4.35482 10.0746 3.44486C9.16463 2.5349 8.05967 2.07992 6.75972 2.07992C5.45978 2.07992 4.35482 2.5349 3.44486 3.44486C2.5349 4.35482 2.07992 5.45978 2.07992 6.75972C2.07992 8.05967 2.5349 9.16463 3.44486 10.0746C4.35482 10.9846 5.45978 11.4395 6.75972 11.4395Z" fill="url(#paint0_linear_611_1832)"/>
<defs>
<linearGradient id="paint0_linear_611_1832" x1="15.661" y1="-26.9184" x2="11.8185" y2="23.9811" gradientUnits="userSpaceOnUse">
<stop stop-color="#ABABAB"/>
<stop offset="1"/>
</linearGradient>
</defs>
</svg>
