<svg width="20" height="20" viewBox="0 0 20 20" fill="none" xmlns="http://www.w3.org/2000/svg">
<g clip-path="url(#clip0_648_88)">
<path d="M9.97559 5.7002C12.25 5.70032 14.2083 6.45915 15.8438 7.97656C17.4807 9.49554 18.3008 11.3808 18.3008 13.625C18.3008 14.4849 17.9938 15.2075 17.3818 15.7852C16.7708 16.3618 16.0245 16.6503 15.1504 16.6504C14.2763 16.6504 13.5228 16.3617 12.8955 15.7861C12.2663 15.2087 11.9502 14.486 11.9502 13.625C11.9502 13.1034 11.7578 12.6677 11.3701 12.3115C10.9808 11.954 10.5176 11.7755 9.97559 11.7754C9.4335 11.7754 8.97043 11.9541 8.58105 12.3115C8.19316 12.6678 8 13.1033 8 13.625C8 15.2203 8.47291 16.5455 9.41309 17.6084C10.2985 18.6093 11.4264 19.3302 12.7998 19.7695L13.0781 19.8535L13.082 19.8555C13.2516 19.9121 13.3785 20.0113 13.4424 20.1602C13.5016 20.2985 13.5108 20.447 13.4727 20.5996L13.4717 20.6025C13.4324 20.7398 13.3533 20.857 13.2393 20.9521C13.1112 21.0587 12.9521 21.0864 12.7783 21.0479L12.7764 21.0469C11.0242 20.6088 9.5888 19.7358 8.47461 18.4277C7.35762 17.1161 6.80078 15.5129 6.80078 13.625C6.80078 12.7645 7.1113 12.0379 7.73145 11.4521C8.35057 10.8675 9.10101 10.5752 9.97559 10.5752C10.8499 10.5753 11.5998 10.8677 12.2188 11.4521C12.8388 12.0379 13.1504 12.7646 13.1504 13.625C13.1504 14.146 13.3461 14.582 13.7422 14.9385C14.1402 15.2966 14.6083 15.4746 15.1504 15.4746C15.6924 15.4745 16.1515 15.2963 16.5322 14.9395C16.9117 14.5835 17.1006 14.1473 17.1006 13.625C17.1006 11.7197 16.4038 10.1209 15.0078 8.82324C13.6101 7.52419 11.9417 6.8751 10 6.875C8.05843 6.8751 6.39083 7.52434 4.99316 8.82324C3.59688 10.1211 2.90049 11.7113 2.90039 13.5996C2.90039 13.9939 2.937 14.4902 3.01172 15.0879C3.06709 15.5307 3.18054 16.031 3.35254 16.5889L3.54492 17.167V17.168C3.60133 17.3373 3.59981 17.4994 3.52734 17.6445C3.45671 17.7858 3.33993 17.8854 3.18555 17.9434C3.0281 18.0024 2.87081 17.9977 2.7207 17.9277C2.57153 17.8581 2.46614 17.7423 2.40723 17.5859L2.23145 17.0947C2.06899 16.6042 1.9464 16.1154 1.86426 15.6289C1.75498 14.9816 1.7002 14.3135 1.7002 13.625C1.7002 11.3809 2.51574 9.49565 4.14453 7.97656C5.77164 6.45917 7.7175 5.7002 9.97559 5.7002ZM9.97559 8.125C11.5502 8.12513 12.9086 8.65575 14.0439 9.71484C15.1803 10.7752 15.75 12.0807 15.75 13.625C15.75 13.7969 15.6972 13.9452 15.584 14.0586C15.4707 14.1719 15.3222 14.2245 15.1504 14.2246C14.9917 14.2246 14.8504 14.1696 14.7324 14.0615C14.6095 13.9488 14.5508 13.7997 14.5508 13.625C14.5508 12.4033 14.0993 11.3842 13.1953 10.5615C12.2892 9.73707 11.2174 9.32532 9.97559 9.3252C8.73375 9.3252 7.67052 9.73679 6.78125 10.5605C5.89356 11.3831 5.4502 12.4025 5.4502 13.625C5.4502 14.9638 5.68148 16.094 6.13965 17.0186C6.6006 17.9486 7.2773 18.8855 8.1709 19.8291C8.28825 19.9465 8.35059 20.0885 8.35059 20.25C8.35059 20.4115 8.28825 20.5535 8.1709 20.6709C8.05356 20.7881 7.9113 20.8495 7.75 20.8496C7.58882 20.8495 7.44736 20.788 7.33008 20.6709L7.32812 20.6689C6.33911 19.6296 5.5781 18.5671 5.04785 17.4814C4.51486 16.3901 4.25 15.1035 4.25 13.625C4.25 12.0809 4.81168 10.7754 5.93164 9.71484C7.05064 8.65529 8.40077 8.125 9.97559 8.125ZM9.9502 13.0254C10.1246 13.0255 10.2741 13.0843 10.3867 13.207C10.4948 13.3251 10.5508 13.4663 10.5508 13.625C10.5508 14.8477 10.9894 15.8448 11.8672 16.625C12.7488 17.4086 13.775 17.7997 14.9502 17.7998C15.0456 17.7998 15.1842 17.7919 15.3662 17.7754C15.5466 17.759 15.7361 17.7341 15.9336 17.7012C16.1037 17.6645 16.2609 17.6878 16.3945 17.7803C16.5268 17.872 16.6106 18.0086 16.6484 18.1787H16.6475C16.6869 18.3397 16.657 18.489 16.5527 18.6143C16.4554 18.7311 16.3277 18.8074 16.1758 18.8457L16.1768 18.8467C15.8723 18.9312 15.6011 18.9786 15.3662 18.9873C15.1429 18.9956 15.0028 19 14.9502 19C13.4421 18.9999 12.1305 18.4904 11.0205 17.4736C9.9076 16.4542 9.35059 15.1689 9.35059 13.625C9.35059 13.4662 9.4064 13.3251 9.51465 13.207C9.62725 13.0846 9.77588 13.0255 9.9502 13.0254ZM9.97559 3.34961C11.7567 3.34969 13.4384 3.73232 15.0186 4.49707C16.6 5.26264 17.9221 6.36939 18.9814 7.81543H18.9805C19.1052 7.97652 19.1655 8.14571 19.1074 8.30859C19.0595 8.44282 18.9771 8.55725 18.8643 8.65137C18.7442 8.75141 18.6022 8.79685 18.4443 8.78711C18.2749 8.77652 18.1333 8.68543 18.0205 8.53516L18.0186 8.53223C17.1119 7.24655 15.9456 6.26238 14.5195 5.57812C13.0917 4.89309 11.5772 4.54989 9.97559 4.5498C8.37401 4.5498 6.87216 4.89257 5.46973 5.57715C4.06824 6.2614 2.90526 7.24654 1.98145 8.5332C1.87154 8.69686 1.73245 8.80282 1.5625 8.82422C1.40309 8.84406 1.25854 8.80341 1.13672 8.70215V8.70117C1.00569 8.60568 0.919809 8.48272 0.889648 8.33203C0.857541 8.17128 0.909094 8.01384 1.02051 7.86523C2.06302 6.43635 3.37116 5.32644 4.94336 4.53613C6.5157 3.74584 8.19369 3.34961 9.97559 3.34961ZM9.97559 0.900391C11.0502 0.900436 12.1003 1.03065 13.125 1.29102C14.0207 1.51864 14.8913 1.83248 15.7354 2.2334L16.0957 2.41113L16.0986 2.41211C16.2623 2.50313 16.3778 2.62392 16.4111 2.7793C16.4406 2.91733 16.4247 3.05523 16.3672 3.18945C16.3082 3.32711 16.2093 3.43498 16.0752 3.51172C15.9192 3.60087 15.7395 3.58108 15.5557 3.48926H15.5547C14.678 3.04265 13.7721 2.69876 12.8379 2.45898C11.9047 2.21952 10.9503 2.09966 9.97559 2.09961C9.0169 2.09961 8.07391 2.2115 7.14844 2.43457C6.22465 2.65731 5.34179 3.00868 4.5 3.4873L4.49902 3.48633C4.34571 3.58092 4.18385 3.60853 4.02051 3.55762C3.85965 3.50729 3.73902 3.40058 3.66113 3.24512C3.5867 3.09626 3.56145 2.9475 3.60449 2.80762C3.6473 2.66896 3.75177 2.5559 3.89746 2.46484L3.90332 2.46191C4.84341 1.95833 5.8264 1.57235 6.85059 1.30371C7.87528 1.03501 8.91728 0.900391 9.97559 0.900391Z" fill="url(#paint0_linear_648_88)"/>
</g>
<defs>
<linearGradient id="paint0_linear_648_88" x1="17.1016" y1="-29.907" x2="4.49461" y2="22.2703" gradientUnits="userSpaceOnUse">
<stop stop-color="#ABABAB"/>
<stop offset="1"/>
</linearGradient>
<clipPath id="clip0_648_88">
<rect width="20" height="20" fill="white"/>
</clipPath>
</defs>
</svg>
