<svg width="20" height="20" viewBox="0 0 20 20" fill="none" xmlns="http://www.w3.org/2000/svg">
<path d="M8.95 13.2039L14.2538 7.88395L13.1846 6.81148L8.95 11.059L6.83075 8.93332L5.76154 10.0058L8.95 13.2039ZM10 19.5C7.83718 18.9085 6.04648 17.6315 4.62789 15.6691C3.20929 13.7068 2.5 11.5129 2.5 9.08761V3.31624L10 0.5L17.5 3.31624V9.08761C17.5 11.5129 16.7907 13.7068 15.3721 15.6691C13.9535 17.6315 12.1628 18.9085 10 19.5ZM10 17.9144C11.7333 17.3628 13.1667 16.2594 14.3 14.6044C15.4334 12.9494 16.0762 11.1104 16.0762 9.08761V4.36028L10 2.01895L3.91674 4.36028L3.99997 9.08761C3.99997 11.1104 4.56664 12.9494 5.69998 14.6044C6.83332 16.2594 8.26666 17.3628 10 17.9144Z" fill="url(#paint0_linear_648_86)"/>
<defs>
<linearGradient id="paint0_linear_648_86" x1="16.4538" y1="-23.2766" x2="3.35417" y2="21.1786" gradientUnits="userSpaceOnUse">
<stop stop-color="#ABABAB"/>
<stop offset="1"/>
</linearGradient>
</defs>
</svg>
