<svg width="20" height="20" viewBox="0 0 20 20" fill="none" xmlns="http://www.w3.org/2000/svg">
<path d="M9.88086 0.5C12.4026 0.500454 14.412 2.60276 14.4121 5.14551V8.29102H15.6855C17.1638 8.29138 18.3262 9.52142 18.3262 10.9893V16.833C18.3261 18.3008 17.1638 19.5299 15.6855 19.5303H4.34082C2.8623 19.5302 1.70028 18.301 1.7002 16.833V10.9893C1.70021 9.52124 2.86226 8.29108 4.34082 8.29102H5.34863V5.14551C5.34874 2.60248 7.35877 0.5 9.88086 0.5ZM4.34082 9.79102C3.73245 9.79108 3.20021 10.3073 3.2002 10.9893V16.833C3.20028 17.5149 3.73249 18.0302 4.34082 18.0303H15.6855C16.2937 18.0299 16.8261 17.5147 16.8262 16.833V10.9893C16.8262 10.3075 16.2937 9.79139 15.6855 9.79102H4.34082ZM10.0127 12.1875C10.4267 12.1878 10.7627 12.5234 10.7627 12.9375V14.8848C10.7627 15.2988 10.4267 15.6345 10.0127 15.6348C9.59869 15.6345 9.2627 15.2988 9.2627 14.8848V12.9375C9.2627 12.5234 9.59869 12.1877 10.0127 12.1875ZM9.88086 2C8.22897 2 6.84874 3.38852 6.84863 5.14551V8.29102H12.9121V5.14551C12.912 3.38881 11.5324 2.00046 9.88086 2Z" fill="url(#paint0_linear_648_87)"/>
<defs>
<linearGradient id="paint0_linear_648_87" x1="16.4787" y1="-28.5752" x2="3.488" y2="22.5717" gradientUnits="userSpaceOnUse">
<stop stop-color="#ABABAB"/>
<stop offset="0.975096"/>
</linearGradient>
</defs>
</svg>
